<?xml version="1.0" encoding="UTF-8" standalone="no"?>
<svg
   xmlns:dc="http://purl.org/dc/elements/1.1/"
   xmlns:cc="http://creativecommons.org/ns#"
   xmlns:rdf="http://www.w3.org/1999/02/22-rdf-syntax-ns#"
   xmlns:svg="http://www.w3.org/2000/svg"
   xmlns="http://www.w3.org/2000/svg"
   xmlns:sodipodi="http://sodipodi.sourceforge.net/DTD/sodipodi-0.dtd"
   xmlns:inkscape="http://www.inkscape.org/namespaces/inkscape"
   version="1.1"
   viewBox="0 0 297 297"
   enable-background="new 0 0 297 297"
   id="svg10"
   sodipodi:docname="coupon.svg"
   inkscape:version="1.0.1 (3bc2e813f5, 2020-09-07)">
  <metadata
     id="metadata16">
    <rdf:RDF>
      <cc:Work
         rdf:about="">
        <dc:format>image/svg+xml</dc:format>
        <dc:type
           rdf:resource="http://purl.org/dc/dcmitype/StillImage" />
        <dc:title></dc:title>
      </cc:Work>
    </rdf:RDF>
  </metadata>
  <defs
     id="defs14" />
  <sodipodi:namedview
     pagecolor="#ffffff"
     bordercolor="#666666"
     borderopacity="1"
     objecttolerance="10"
     gridtolerance="10"
     guidetolerance="10"
     inkscape:pageopacity="0"
     inkscape:pageshadow="2"
     inkscape:window-width="1920"
     inkscape:window-height="1000"
     id="namedview12"
     showgrid="false"
     inkscape:zoom="2.7946128"
     inkscape:cx="148.5"
     inkscape:cy="148.5"
     inkscape:window-x="-9"
     inkscape:window-y="-9"
     inkscape:window-maximized="1"
     inkscape:current-layer="svg10" />
  <g
     id="g8"
     style="fill:#ffffff">
    <path
       d="m78.074,125.307c1.447-1.75 1.926-3.932 1.926-6.545v-6.033c0-2.611-0.493-4.818-1.967-6.619-1.473-1.805-3.453-2.705-6.185-2.705-2.68,0-4.963,0.9-6.437,2.705-1.471,1.801-2.41,4.008-2.41,6.619v6.033c0,2.613 1,4.795 2.47,6.545 1.475,1.75 3.613,2.623 6.402,2.623 2.679,0 4.755-0.873 6.201-2.623z"
       id="path2"
       style="fill:#ffffff" />
    <path
       d="m126.621,168.07c-2.734,0-4.891,0.902-6.362,2.703-1.473,1.803-2.259,3.984-2.259,6.545v6.031c0,2.51 0.892,4.676 2.576,6.506 1.682,1.828 3.758,2.74 6.176,2.74 3.258,0 5.414-0.809 6.57-2.43 1.154-1.617 1.678-3.891 1.678-6.816v-6.031c0-2.561-0.678-4.742-2.178-6.545-1.498-1.8-3.523-2.703-6.201-2.703z"
       id="path4"
       style="fill:#ffffff" />
    <path
       d="m0,66v165h297v-165h-297zm46,52.781v-6.072c0-6.834 2.455-12.498 6.873-16.994 4.416-4.496 10.823-6.742 18.972-6.742 8.252,0 14.353,2.246 18.767,6.742 4.418,4.496 6.389,10.16 6.389,16.994v6.072c0,6.836-1.909,12.475-6.327,16.916-4.414,4.445-10.548,6.664-18.696,6.664-8.201,0-14.697-2.234-19.142-6.703-4.443-4.469-6.836-10.094-6.836-16.877zm17.926,71.844l56.068-89.744 12.385,6.23-56.074,89.744-12.379-6.23zm88.074-7.254c0,6.887-2.11,12.551-6.499,16.994-4.389,4.441-10.618,6.662-18.766,6.662-8.201,0-14.522-2.232-19.02-6.701-4.492-4.471-6.715-10.119-6.715-16.955v-6.072c0-6.783 2.23-12.422 6.699-16.918 4.469-4.494 10.775-6.742 18.925-6.742 8.25,0 14.49,2.236 18.879,6.703 4.389,4.469 6.497,10.121 6.497,16.957v6.072zm63,23.629h-17v-29h17v29zm0-44h-17v-29h17v29zm0-45h-17v-29h17v29z"
       id="path6"
       style="fill:#ffffff" />
  </g>
</svg>
