<?xml version="1.0" encoding="UTF-8" standalone="no"?>
<svg
   xmlns:dc="http://purl.org/dc/elements/1.1/"
   xmlns:cc="http://creativecommons.org/ns#"
   xmlns:rdf="http://www.w3.org/1999/02/22-rdf-syntax-ns#"
   xmlns:svg="http://www.w3.org/2000/svg"
   xmlns="http://www.w3.org/2000/svg"
   xmlns:sodipodi="http://sodipodi.sourceforge.net/DTD/sodipodi-0.dtd"
   xmlns:inkscape="http://www.inkscape.org/namespaces/inkscape"
   version="1.1"
   id="Layer_1"
   x="0px"
   y="0px"
   viewBox="0 0 455 455"
   style="enable-background:new 0 0 455 455;"
   xml:space="preserve"
   sodipodi:docname="street-map.svg"
   inkscape:version="1.0.1 (3bc2e813f5, 2020-09-07)"><metadata
   id="metadata59"><rdf:RDF><cc:Work
       rdf:about=""><dc:format>image/svg+xml</dc:format><dc:type
         rdf:resource="http://purl.org/dc/dcmitype/StillImage" /><dc:title></dc:title></cc:Work></rdf:RDF></metadata><defs
   id="defs57" /><sodipodi:namedview
   pagecolor="#ffffff"
   bordercolor="#666666"
   borderopacity="1"
   objecttolerance="10"
   gridtolerance="10"
   guidetolerance="10"
   inkscape:pageopacity="0"
   inkscape:pageshadow="2"
   inkscape:window-width="1920"
   inkscape:window-height="1000"
   id="namedview55"
   showgrid="false"
   inkscape:zoom="1.8241758"
   inkscape:cx="227.5"
   inkscape:cy="227.5"
   inkscape:window-x="-9"
   inkscape:window-y="-9"
   inkscape:window-maximized="1"
   inkscape:current-layer="Layer_1" />
<g
   id="g22"
   style="fill:#ffffff">
	<polygon
   points="161.667,186.941 161.667,303.183 293.333,268.059 293.333,224.989 245.705,164.522  "
   id="polygon2"
   style="fill:#ffffff" />
	<polygon
   points="161.667,450.999 293.333,415.874 293.333,299.108 161.667,334.232  "
   id="polygon4"
   style="fill:#ffffff" />
	<polygon
   points="0,263.946 131.667,302.664 131.667,186.643 0,147.926  "
   id="polygon6"
   style="fill:#ffffff" />
	<path
   d="M228.333,114.791c0-38.984,28.036-71.526,65-78.569V4.002L161.667,39.126v116.766l69.917-18.652   C229.453,129.98,228.333,122.415,228.333,114.791z"
   id="path8"
   style="fill:#ffffff" />
	<path
   d="M358.333,114.791c0-27.57-22.43-50-50-50s-50,22.43-50,50c0,11.342,3.722,22.043,10.763,30.945l39.237,49.813   l39.221-49.791C354.612,136.834,358.333,126.133,358.333,114.791z M308.333,129.696c-8.219,0-14.905-6.687-14.905-14.905   c0-8.219,6.686-14.905,14.905-14.905c8.219,0,14.905,6.686,14.905,14.905C323.238,123.009,316.552,129.696,308.333,129.696z"
   id="path10"
   style="fill:#ffffff" />
	<polygon
   points="0,411.872 131.667,450.589 131.667,333.934 0,295.217  "
   id="polygon12"
   style="fill:#ffffff" />
	<polygon
   points="323.333,416.283 455,455 455,338.345 323.333,299.627  "
   id="polygon14"
   style="fill:#ffffff" />
	<polygon
   points="323.333,224.989 323.333,268.357 455,307.074 455,191.054 369.799,166  "
   id="polygon16"
   style="fill:#ffffff" />
	<polygon
   points="0,116.655 131.667,155.373 131.667,38.717 0,0  "
   id="polygon18"
   style="fill:#ffffff" />
	<path
   d="M323.333,4.411v31.811c36.964,7.043,65,39.585,65,78.569c0,8.262-1.318,16.455-3.813,24.268L455,159.783V43.128   L323.333,4.411z"
   id="path20"
   style="fill:#ffffff" />
</g>
<g
   id="g24"
   style="fill:#ffffff">
</g>
<g
   id="g26"
   style="fill:#ffffff">
</g>
<g
   id="g28"
   style="fill:#ffffff">
</g>
<g
   id="g30"
   style="fill:#ffffff">
</g>
<g
   id="g32"
   style="fill:#ffffff">
</g>
<g
   id="g34"
   style="fill:#ffffff">
</g>
<g
   id="g36"
   style="fill:#ffffff">
</g>
<g
   id="g38"
   style="fill:#ffffff">
</g>
<g
   id="g40"
   style="fill:#ffffff">
</g>
<g
   id="g42"
   style="fill:#ffffff">
</g>
<g
   id="g44"
   style="fill:#ffffff">
</g>
<g
   id="g46"
   style="fill:#ffffff">
</g>
<g
   id="g48"
   style="fill:#ffffff">
</g>
<g
   id="g50"
   style="fill:#ffffff">
</g>
<g
   id="g52"
   style="fill:#ffffff">
</g>
</svg>
