<?xml version="1.0" encoding="UTF-8" standalone="no"?>
<svg
   xmlns:dc="http://purl.org/dc/elements/1.1/"
   xmlns:cc="http://creativecommons.org/ns#"
   xmlns:rdf="http://www.w3.org/1999/02/22-rdf-syntax-ns#"
   xmlns:svg="http://www.w3.org/2000/svg"
   xmlns="http://www.w3.org/2000/svg"
   xmlns:sodipodi="http://sodipodi.sourceforge.net/DTD/sodipodi-0.dtd"
   xmlns:inkscape="http://www.inkscape.org/namespaces/inkscape"
   height="512pt"
   viewBox="0 0 512 512"
   width="512pt"
   version="1.1"
   id="svg4"
   sodipodi:docname="twitter.svg"
   inkscape:version="1.0.1 (3bc2e813f5, 2020-09-07)">
  <metadata
     id="metadata10">
    <rdf:RDF>
      <cc:Work
         rdf:about="">
        <dc:format>image/svg+xml</dc:format>
        <dc:type
           rdf:resource="http://purl.org/dc/dcmitype/StillImage" />
      </cc:Work>
    </rdf:RDF>
  </metadata>
  <defs
     id="defs8" />
  <sodipodi:namedview
     pagecolor="#ffffff"
     bordercolor="#666666"
     borderopacity="1"
     objecttolerance="10"
     gridtolerance="10"
     guidetolerance="10"
     inkscape:pageopacity="0"
     inkscape:pageshadow="2"
     inkscape:window-width="825"
     inkscape:window-height="480"
     id="namedview6"
     showgrid="false"
     inkscape:zoom="1.2158203"
     inkscape:cx="341.33333"
     inkscape:cy="341.33333"
     inkscape:window-x="0"
     inkscape:window-y="0"
     inkscape:window-maximized="0"
     inkscape:current-layer="svg4" />
  <path
     d="M 256,0 C 114.63672,0 0,114.63672 0,256 0,397.36328 114.63672,512 256,512 397.36328,512 512,397.36328 512,256 512,114.63672 397.36328,0 256,0 Z m 116.88672,199.60156 c 0.11328,2.51953 0.16797,5.05078 0.16797,7.59375 0,77.64453 -59.10157,167.17969 -167.18359,167.1836 h 0.004 -0.004 c -33.1836,0 -64.0625,-9.72657 -90.06641,-26.39454 4.59766,0.54297 9.27734,0.8125 14.01562,0.8125 27.53125,0 52.86719,-9.39062 72.98047,-25.15234 -25.72265,-0.47656 -47.41015,-17.46484 -54.89453,-40.8125 3.58203,0.6875 7.26562,1.0625 11.04297,1.0625 5.36328,0 10.55859,-0.72266 15.49609,-2.07031 -26.88671,-5.38281 -47.14062,-29.14453 -47.14062,-57.59766 0,-0.26562 0,-0.5039 0.008,-0.75 7.91797,4.40235 16.97265,7.05078 26.61328,7.34766 -15.77734,-10.52735 -26.14844,-28.52344 -26.14844,-48.91016 0,-10.76562 2.91016,-20.85156 7.95703,-29.53515 28.97657,35.55468 72.28125,58.9375 121.11719,61.39453 -1.00781,-4.30469 -1.52734,-8.78907 -1.52734,-13.39844 0,-32.4375 26.31641,-58.75391 58.76562,-58.75391 16.90234,0 32.16797,7.14453 42.89063,18.56641 13.38671,-2.64063 25.95703,-7.53125 37.31249,-14.26172 -4.39453,13.71484 -13.70702,25.22266 -25.83984,32.5 11.88673,-1.42187 23.21485,-4.57422 33.74219,-9.25391 -7.86328,11.78516 -17.83594,22.13672 -29.30859,30.42969 z m 0,0"
     id="path2"
     style="fill:#ffffff;stroke-width:1" />
</svg>
